<?xml version="1.0" encoding="utf-8"?>
<!-- Generator: Adobe Illustrator 17.1.0, SVG Export Plug-In . SVG Version: 6.00 Build 0)  -->
<!DOCTYPE svg PUBLIC "-//W3C//DTD SVG 1.1//EN" "http://www.w3.org/Graphics/SVG/1.1/DTD/svg11.dtd">
<svg version="1.1" xmlns="http://www.w3.org/2000/svg" xmlns:xlink="http://www.w3.org/1999/xlink" x="0px" y="0px"
	 viewBox="0 0 1040 500" enable-background="new 0 0 1040 500" xml:space="preserve">
<g id="BACKGROUND">
	<path fill="#FFFFFF" d="M1040,0v500H0V0h214.7c0,0,37.7,0,105,0H1040z"/>
</g>
<g id="OBJECTS">
	<g>
		<path fill="#FFEDE1" d="M1040,63V500H384.1c14.4-55.2,48.1-175.1,189.2-166.7c191.5,11.4,137.6-80.8,216.5-202
			C828.1,74.5,921.9,40.3,1040,63z"/>
		<path fill="#FFEDE1" d="M322,0h287.3C609.3,0,501,115.4,322,0z"/>
	</g>
	<g>
		<g>
			<rect x="470.1" y="438.8" fill="#B25A1F" width="542.6" height="10.9"/>
			<g>
				<circle fill="#FFB727" cx="695.7" cy="115.6" r="17.8"/>
				<g>
					<rect x="694.8" y="0" fill="#2E3442" width="2" height="55.4"/>
				</g>
				<ellipse fill="#314B87" cx="695.7" cy="71.7" rx="22.6" ry="26.1"/>
				<path fill="#F2811C" d="M610.3,115.6h170.9C781.2,115.6,703.7,8.5,610.3,115.6z"/>
			</g>
			<g>
				<g>
					<path fill="#314B87" d="M918.6,187.4H561.8c-3.9,0-7,3.1-7,7v223.8h370.8V194.3C925.6,190.5,922.5,187.4,918.6,187.4z"/>
					<rect x="564.4" y="413.9" opacity="0.7" fill="#FFFFFF" width="351.7" height="4.2"/>
					<path fill="#B7EBEA" d="M909.2,199h-338c-1.9,0-3.5,1.6-3.5,3.5v190.8c0,1.9,1.6,3.5,3.5,3.5h338c1.9,0,3.5-1.6,3.5-3.5V202.5
						C912.7,200.6,911.1,199,909.2,199z"/>
					<g>
						<g>
							<g>
								<g>
									<g opacity="0.5">
										<path fill="#3DB6C4" d="M633.8,358.7h45.6c0.8,0,1.5-0.7,1.5-1.5V357c0-0.8-0.7-1.5-1.5-1.5h-45.6c-0.8,0-1.5,0.7-1.5,1.5
											v0.2C632.3,358,633,358.7,633.8,358.7z"/>
										<path fill="#3DB6C4" d="M680,361.8h-46.8c-0.5,0-0.9,0.4-0.9,1c0,0.5,0.4,1,0.9,1H680c0.5,0,0.9-0.4,0.9-1
											C680.9,362.2,680.5,361.8,680,361.8z"/>
										<path fill="#3DB6C4" d="M680,366.9h-46.8c-0.5,0-0.9,0.4-0.9,1c0,0.5,0.4,1,0.9,1H680c0.5,0,0.9-0.4,0.9-1
											C680.9,367.3,680.5,366.9,680,366.9z"/>
										<path fill="#3DB6C4" d="M665.2,372h-32c-0.5,0-0.9,0.4-0.9,1c0,0.5,0.4,1,0.9,1h32c0.5,0,0.9-0.4,0.9-1
											C666.2,372.4,665.7,372,665.2,372z"/>
									</g>
									<g>
										<path fill="#FFFFFF" d="M621.5,355.4h-33.7c-2.8,0-5.1,2.3-5.1,5.1v19c0,2.8,2.3,5.1,5.1,5.1h33.7c2.8,0,5.1-2.3,5.1-5.1
											v-19C626.7,357.7,624.4,355.4,621.5,355.4z"/>
										<polygon fill="#3DB6C4" points="598.1,363.2 598.1,375.7 611.3,369.4 										"/>
									</g>
								</g>
							</g>
							<g opacity="0.5">
								<g>
									<path fill="#3DB6C4" d="M898.1,225.8H790c-1.4,0-2.5,1.1-2.5,2.5v1.1c0,1.4,1.1,2.5,2.5,2.5h108.1c1.4,0,2.5-1.1,2.5-2.5
										v-1.1C900.6,226.9,899.5,225.8,898.1,225.8z"/>
									<path fill="#3DB6C4" d="M898.9,237.8H789.2c-1,0-1.8,0.8-1.8,1.8s0.8,1.8,1.8,1.8h109.6c1,0,1.8-0.8,1.8-1.8
										S899.8,237.8,898.9,237.8z"/>
									<path fill="#3DB6C4" d="M898.9,247.5H789.2c-1,0-1.8,0.8-1.8,1.8c0,1,0.8,1.8,1.8,1.8h109.6c1,0,1.8-0.8,1.8-1.8
										C900.6,248.3,899.8,247.5,898.9,247.5z"/>
									<path fill="#3DB6C4" d="M870.8,257.2h-81.6c-1,0-1.8,0.8-1.8,1.8c0,1,0.8,1.8,1.8,1.8h81.6c1,0,1.8-0.8,1.8-1.8
										C872.6,258.1,871.8,257.2,870.8,257.2z"/>
									<path fill="#3DB6C4" d="M898.9,316H789.2c-1,0-1.8,0.8-1.8,1.8c0,1,0.8,1.8,1.8,1.8h109.6c1,0,1.8-0.8,1.8-1.8
										C900.6,316.8,899.8,316,898.9,316z"/>
									<path fill="#3DB6C4" d="M898.9,325.7H789.2c-1,0-1.8,0.8-1.8,1.8s0.8,1.8,1.8,1.8h109.6c1,0,1.8-0.8,1.8-1.8
										S899.8,325.7,898.9,325.7z"/>
									<path fill="#3DB6C4" d="M870.8,335.5h-81.6c-1,0-1.8,0.8-1.8,1.8c0,1,0.8,1.8,1.8,1.8h81.6c1,0,1.8-0.8,1.8-1.8
										C872.6,336.3,871.8,335.5,870.8,335.5z"/>
								</g>
								<rect x="787.5" y="269.7" fill="#3DB6C4" width="37.5" height="37.5"/>
								<rect x="832.3" y="269.7" fill="#3DB6C4" width="37.5" height="37.5"/>
							</g>
							<g>
								<g>
									<g opacity="0.5">
										<path fill="#3DB6C4" d="M746,358.7h45.6c0.8,0,1.5-0.7,1.5-1.5V357c0-0.8-0.7-1.5-1.5-1.5H746c-0.8,0-1.5,0.7-1.5,1.5v0.2
											C744.5,358,745.2,358.7,746,358.7z"/>
										<path fill="#3DB6C4" d="M792.2,361.8h-46.8c-0.5,0-0.9,0.4-0.9,1c0,0.5,0.4,1,0.9,1h46.8c0.5,0,0.9-0.4,0.9-1
											C793.1,362.2,792.7,361.8,792.2,361.8z"/>
										<path fill="#3DB6C4" d="M792.2,366.9h-46.8c-0.5,0-0.9,0.4-0.9,1c0,0.5,0.4,1,0.9,1h46.8c0.5,0,0.9-0.4,0.9-1
											C793.1,367.3,792.7,366.9,792.2,366.9z"/>
										<path fill="#3DB6C4" d="M777.4,372h-32c-0.5,0-0.9,0.4-0.9,1c0,0.5,0.4,1,0.9,1h32c0.5,0,0.9-0.4,0.9-1
											C778.4,372.4,777.9,372,777.4,372z"/>
									</g>
									<g>
										<path fill="#FFFFFF" d="M733.7,355.4H700c-2.8,0-5.1,2.3-5.1,5.1v19c0,2.8,2.3,5.1,5.1,5.1h33.7c2.8,0,5.1-2.3,5.1-5.1
											v-19C738.9,357.7,736.6,355.4,733.7,355.4z"/>
										<polygon fill="#3DB6C4" points="710.3,363.2 710.3,375.7 723.5,369.4 										"/>
									</g>
								</g>
							</g>
							<g>
								<g>
									<g opacity="0.5">
										<path fill="#3DB6C4" d="M858.2,358.7h45.5c0.8,0,1.5-0.7,1.5-1.5V357c0-0.8-0.7-1.5-1.5-1.5h-45.5c-0.8,0-1.5,0.7-1.5,1.5
											v0.2C856.7,358,857.4,358.7,858.2,358.7z"/>
										<path fill="#3DB6C4" d="M904.4,361.8h-46.8c-0.5,0-0.9,0.4-0.9,1c0,0.5,0.4,1,0.9,1h46.8c0.5,0,0.9-0.4,0.9-1
											C905.3,362.2,904.9,361.8,904.4,361.8z"/>
										<path fill="#3DB6C4" d="M904.4,366.9h-46.8c-0.5,0-0.9,0.4-0.9,1c0,0.5,0.4,1,0.9,1h46.8c0.5,0,0.9-0.4,0.9-1
											C905.3,367.3,904.9,366.9,904.4,366.9z"/>
										<path fill="#3DB6C4" d="M889.6,372h-32c-0.5,0-0.9,0.4-0.9,1c0,0.5,0.4,1,0.9,1h32c0.5,0,0.9-0.4,0.9-1
											C890.5,372.4,890.1,372,889.6,372z"/>
									</g>
									<g>
										<path fill="#FFFFFF" d="M845.9,355.4h-33.7c-2.8,0-5.1,2.3-5.1,5.1v19c0,2.8,2.3,5.1,5.1,5.1h33.7c2.8,0,5.1-2.3,5.1-5.1
											v-19C851.1,357.7,848.8,355.4,845.9,355.4z"/>
										<polygon fill="#3DB6C4" points="822.5,363.2 822.5,375.7 835.7,369.4 										"/>
									</g>
								</g>
							</g>
							<g>
								<g>
									<g>
										<g>
											<path fill="#FFFFFF" d="M775.6,222.8v108.7c0,5.4-4.4,9.8-9.8,9.8H592.4c-5.4,0-9.8-4.4-9.8-9.8V222.8
												c0-5.4,4.4-9.8,9.8-9.8h173.3C771.2,213,775.6,217.4,775.6,222.8z"/>
											<path fill="#3DB6C4" d="M775.6,222.8v6h-193v-6c0-5.4,4.4-9.8,9.8-9.8h173.3C771.2,213,775.6,217.4,775.6,222.8z"/>
											<g>
												<circle fill="#FFFFFF" cx="593" cy="220.9" r="2.5"/>
												<circle fill="#FFFFFF" cx="602.6" cy="220.9" r="2.5"/>
												<circle fill="#FFFFFF" cx="612.2" cy="220.9" r="2.5"/>
											</g>
										</g>
									</g>
								</g>
								<g>
									<g>
										<g>
											<path fill="#B7EBEA" d="M706.6,294.5h51.9c0.9,0,1.6-0.7,1.6-1.6V292c0-0.9-0.7-1.6-1.6-1.6h-51.9
												c-0.9,0-1.6,0.7-1.6,1.6v0.8C704.9,293.7,705.7,294.5,706.6,294.5z"/>
											<path fill="#B7EBEA" d="M758.9,298.4h-52.8c-0.7,0-1.2,0.5-1.2,1.2c0,0.7,0.5,1.2,1.2,1.2h52.8c0.7,0,1.2-0.5,1.2-1.2
												C760.1,298.9,759.6,298.4,758.9,298.4z"/>
											<path fill="#B7EBEA" d="M758.9,304.8h-52.8c-0.7,0-1.2,0.5-1.2,1.2c0,0.7,0.5,1.2,1.2,1.2h52.8c0.7,0,1.2-0.5,1.2-1.2
												C760.1,305.3,759.6,304.8,758.9,304.8z"/>
											<path fill="#B7EBEA" d="M758.9,311.2h-52.8c-0.7,0-1.2,0.5-1.2,1.2c0,0.7,0.5,1.2,1.2,1.2h52.8c0.7,0,1.2-0.5,1.2-1.2
												C760.1,311.8,759.6,311.2,758.9,311.2z"/>
											<path fill="#B7EBEA" d="M758.9,317.7h-43.2c-0.7,0-1.2,0.5-1.2,1.2c0,0.7,0.5,1.2,1.2,1.2h43.2c0.7,0,1.2-0.5,1.2-1.2
												C760.1,318.2,759.6,317.7,758.9,317.7z"/>
										</g>
										<g>
											<g>
												<path fill="#B7EBEA" d="M631.8,273.7l-12.4-31.3c3.8-1.5,8-2.3,12.4-2.3c18.6,0,33.7,15.1,33.7,33.7
													c0,18.6-15.1,33.7-33.7,33.7c-18.6,0-33.7-15.1-33.7-33.7c0-1.9,0.2-3.8,0.5-5.6L631.8,273.7z"/>
												<path fill="#B7EBEA" d="M592.7,263.9c2-11.8,10-21.5,20.8-25.7l12.4,31.3L592.7,263.9z"/>
											</g>
											<g>
												<g>
													<rect x="593.3" y="316.8" fill="#B7EBEA" width="5" height="5"/>
													<path fill="#B7EBEA" d="M622.9,320.1h-20.6c-0.4,0-0.6-0.3-0.6-0.6l0,0c0-0.4,0.3-0.6,0.6-0.6h20.6
														c0.4,0,0.6,0.3,0.6,0.6l0,0C623.6,319.8,623.3,320.1,622.9,320.1z"/>
												</g>
												<g>
													<rect x="634.4" y="316.9" fill="#B7EBEA" width="5" height="5"/>
													<path fill="#B7EBEA" d="M664,320.2h-20.6c-0.4,0-0.7-0.3-0.7-0.6l0,0c0-0.4,0.3-0.7,0.7-0.7H664c0.4,0,0.7,0.3,0.7,0.7
														l0,0C664.7,319.9,664.4,320.2,664,320.2z"/>
												</g>
											</g>
										</g>
										<g>
											<polygon fill="#B7EBEA" points="683.1,280.6 697,271.9 704.3,274.7 716.2,257.4 723,266.1 730.8,256.4 741,261 
												759.9,245.6 759.9,280.6 											"/>
											<polygon fill="#B7EBEA" points="758.3,239.3 752.6,241.2 753.6,242.4 740.5,253 730.2,248.4 722.5,258 715.7,249.2 
												703.7,266.8 696.5,264 682.4,272.8 682.8,273.6 696.6,265 704,267.9 715.8,250.8 722.5,259.5 730.5,249.6 740.6,254.1 
												754.1,243.1 755,244.1 											"/>
										</g>
									</g>
								</g>
								<g>
									<polygon fill="#434244" points="647,341.4 646.5,334.9 610.3,334.9 609.5,341.4 									"/>
									<path fill="#314B87" d="M608.9,327.5l-1.9,13.8h41.4l-1.7-22.9v0l-0.9-12.4l2.9-15.4c0,0,0,0,0,0l-10.8-6.7
										c-0.5-0.2-1-0.3-1.4-0.5c-0.2-0.1-0.5-0.2-0.7-0.2c-0.2-0.1-0.5-0.2-0.7-0.2c-0.4-0.1-0.7-0.2-1.1-0.3
										c-0.3-0.1-0.7-0.2-1-0.3c-0.7-0.2-1.3-0.4-1.9-0.6c-2,0-7.9-0.1-7.9-0.1c-1,0.3-2.1,0.6-3.1,0.9
										c-6.7,2.1-13.8,5.5-13.8,5.5l5.9,16.5l-1,7.4L608.9,327.5z"/>
									<path opacity="0.5" fill="#FFFFFF" d="M620.1,282.7l7.8,14.8l4.2-5.7l5.2,5l0.6-12.7c-2.4-0.8-4.8-1.6-6.8-2.2
										c-2,0-7.9-0.1-7.9-0.1C622.2,282,621.1,282.3,620.1,282.7z"/>
									<g>
										<g>
											<path fill="#FFC0C4" d="M677.1,298.8c4.8-5,8.5-9,8.5-9l4.5,6.5c0,0-3.1,3.7-7.4,8.7C680.8,303,678.9,300.9,677.1,298.8z
												"/>
											<g>
												<path fill="#FFC0C4" d="M687,297.9c0,0,4.2,2.2,6.3,1.8c1.9-0.4,3.2-1.8,3.2-1.8l-2.4-10.6c0,0-2.6-1.1-2.7-1
													c-0.1,0.2-5,6.4-5,6.4L687,297.9z"/>
												<path opacity="0.7" fill="#FFC0C4" d="M688.2,298.5c1.4,0.6,3.7,1.5,5.1,1.3c1.9-0.4,3.2-1.8,3.2-1.8l-2.4-10.6
													c0,0-2.6-1.1-2.7-1c-0.1,0.2-4.2,7.5-4.2,7.5S686.7,296.3,688.2,298.5z"/>
												<g>
													<polygon fill="#434244" points="687.3,300.4 689.2,301.5 711.5,256.8 710.5,256.3 													"/>
												</g>
												<path fill="#FFC0C4" d="M690.8,289.6c0,0.6,0.7,0.9,1,1l0,0c0.1,0,0.1,0,0.1,0.1c0,0.1-0.2,0.1-0.5,0.3
													c-0.3,0.2-0.6,0.6-0.6,1.2c0,0.2,0.1,0.4,0.3,0.6c0.3,0.3,0.7,0.4,0.7,0.4l0,0c-0.1,0.1-1.2,0.7-0.9,1.4
													c0.3,0.7,1.4,1.1,1.4,1.1c0,0-0.4,0.1-0.6,0.4c-0.2,0.2-0.3,0.4-0.2,0.7c0.2,0.5,1.1,0.9,1.6,1.1c0.1,0,0.2,0.1,0.3,0.1
													c0.1,0,0.1,0,0.1,0l0,0c1.4,0.4,3.6,0.6,4.6-0.2c0.4-0.3,0.5-1.3,0.3-1.9c1.3-0.7,1.4-2.7,0.6-3.2c1.3-1.5,0.8-2.5,0-3
													c0.5-1.6-0.4-2.7-1-2.9c-0.7-0.2-1.8,0-3.5,0.4l0,0c0,0,0,0-0.1,0c-0.2,0.1-1.1,0.3-1.3,0.4
													C691.7,288.1,690.8,289,690.8,289.6z"/>
												<path fill="#FFC0C4" d="M685.7,289.8c0,0,2-4.2,5.3-6.2c1.6-0.3,6.5,4.8,6.5,4.8c-0.8,2.1-3.6,2-5.4,0.1
													c0,0,0.8,4.8-4.8,5.4L685.7,289.8z"/>
												<path opacity="0.7" fill="#FFC0C4" d="M697.4,288.5c-0.2,0.5-0.6,0.9-1,1.1c-0.4,0.2-1,0.3-1.5,0.2
													c-0.5-0.1-1-0.3-1.4-0.5c-0.5-0.2-0.9-0.5-1.3-0.8l-0.4-0.2l0,0.4c0,0.5,0,1-0.1,1.4c-0.1,0.5-0.2,0.9-0.4,1.4
													c-0.2,0.4-0.5,0.8-0.8,1.1c-0.3,0.3-0.8,0.6-1.2,0.8c0.5-0.1,0.9-0.3,1.4-0.6c0.4-0.3,0.8-0.7,1-1.2
													c0.3-0.4,0.4-0.9,0.5-1.4c0.1-0.5,0.1-1,0.1-1.5l-0.3,0.2c0.4,0.3,0.9,0.6,1.4,0.8c0.5,0.2,1,0.4,1.6,0.4
													c0.5,0,1.1,0,1.6-0.4C697,289.4,697.3,289,697.4,288.5z"/>
												<path opacity="0.7" fill="#FFC0C4" d="M691.8,296.1l5.2-0.4l-4.6,0C692.4,295.7,692,295.8,691.8,296.1z"/>
												<path opacity="0.7" fill="#FFC0C4" d="M691.2,292.8L691.2,292.8c0.3,0.3,0.7,0.4,0.7,0.4l5.4-0.2L691.2,292.8z"/>
												<path opacity="0.7" fill="#FFC0C4" d="M691.5,291L691.5,291l0.8,0l4.8-0.6l-5.3,0.2c0.1,0,0.1,0,0.1,0.1
													C692,290.7,691.7,290.8,691.5,291z"/>
											</g>
										</g>
										<path fill="#314B87" d="M648.7,290.7l12.6,20.9l19.7-20.2c0,0,5.9,4,7.8,11.7c0,0-22,28.2-27.9,28.7
											c-7.3,0.7-19.4-22.1-19.4-22.1S648.6,290.7,648.7,290.7z"/>
									</g>
									<g>
										<path fill="#FFC0C4" d="M623.2,281.8c0.3,1.4,8.9,9.9,8.9,9.9l3-8.3L635,283l-0.9-4.6c-0.4-1.4-1.4-2.7-2.6-3.7
											c-3.2-2.8-8-5.2-8-5.2L623.2,281.8z"/>
										<path opacity="0.7" fill="#FFC0C4" d="M625.7,275.5c0,0,3.5,5.7,9.3,7.5l-0.9-4.6c-0.4-1.4-1.4-2.7-2.6-3.7L625.7,275.5z"
											/>
										<g>
											<path fill="#FFC0C4" d="M623.5,272.9c2,3.1,8.2,8.5,12.5,8.3c1.9,0,5.8-3.1,7.7-6.1c0.4-0.8,0.7-2.1,0.7-3.6
												c0-0.4,0-0.9,0-1.3c-0.1-4.3-1-9.8-1.3-10.6c-0.7-2.4-4.7-3.9-8.9-4c-8.3-0.2-9.6,3.9-9.6,3.9c-0.3,0.9-0.8,1.2-1.4,3.6
												C622.2,267,622.3,271,623.5,272.9z"/>
											<g>
												<g>
													<path opacity="0.7" fill="#FFC0C4" d="M631.9,271c0,0-1.1,0.7-2.2,0.5c-1.1-0.3-1.7-1.4-1.7-1.4s1.1-0.7,2.2-0.5
														C631.3,269.9,631.9,271,631.9,271z"/>
												</g>
												<g>
													<path opacity="0.7" fill="#FFC0C4" d="M642.4,271.2c0,0,0.8,0.6,1.7,0.5c0.2,0,0.3-0.1,0.5-0.2c0-0.4,0-0.9,0-1.3
														c-0.2-0.1-0.5-0.1-0.7,0C642.9,270.3,642.4,271.2,642.4,271.2z"/>
												</g>
											</g>
											<path fill="#2E3442" d="M624.8,272.2l-0.1-6.5c0,0,3.6-1.2,3.6-5.6c0,0,11.8,5.7,19.2,1.1c2.6-1.6,2.9-3.7,2.9-3.7
												c-1.8-1.6-4.7-1.5-5.9-1.4c0,0-3.5-7-10.7-7.5c-7.2-0.4-8.7,4.3-8.7,4.3s-2.3,0.1-3.7,1.1c-2.1,2.2-0.3,9.5-0.3,9.5
												s2,1.6,2.3,3.3l-0.1,4.4L624.8,272.2z"/>
											<path fill="#FFFFFF" d="M645.2,266.8c0-0.1-0.1-0.2-0.2-0.2h-5.8c-0.1,0-0.1,0-0.2,0.1c0,0-0.1,0.1-0.1,0.1
												c0,0.1,0,0.5,0.1,0.9c-0.4-0.2-1-0.3-1.5,0c0.1-0.5,0.1-0.9,0.1-1c0-0.1,0-0.1-0.1-0.1c0,0-0.1-0.1-0.2-0.1h-7
												c0,0-0.1,0-0.1,0l-0.5-0.1c0,0,0,0,0,0l-0.2-0.1l-0.7-0.2l-3.7-0.9h0l-0.9-0.2l-1.4-0.3h0l-0.3-0.1l-0.1,0l0.3,0.4
												c0,0,0,0,0,0l0,0v0l0.1,0.1l1.6,0.4l0.3,0.1l4.4,1.2l0.1,0h0l0.8,0.2c-0.1,1,0,1.7,0.2,2.3c0.1,0.4,0.3,0.7,0.5,0.9
												c0.3,0.3,0.6,0.5,1.1,0.5h0.1c0.2,0,0.5,0,0.8,0.1c0.5,0,1.1,0.1,1.7,0.1c0.5,0,1-0.1,1.5-0.2c0.8-0.2,1.3-1.5,1.4-2.6
												c0.7-0.6,1.5-0.2,1.7-0.1c0.1,0.8,0.3,1.6,0.6,2.2c0,0,0,0,0,0c0.1,0.1,0.2,0.3,0.3,0.4c0.1,0.1,0.2,0.1,0.3,0.2
												c0.4,0.1,0.8,0.2,1.3,0.2c0.3,0,0.6,0,0.9-0.1c0.2,0,0.4,0,0.5,0c0.3,0,0.5-0.1,0.7-0.1c0.3,0,0.6-0.1,0.8-0.3
												c0,0,0,0,0.1,0C645.1,270,645.3,268.8,645.2,266.8z M635.8,270.6c-0.9,0.2-2.1,0.1-3.1,0c-0.4,0-0.7-0.1-0.9-0.1
												c-0.1,0-0.2,0-0.2,0h0c-0.2-0.1-0.4-0.1-0.5-0.3c-0.1-0.1-0.2-0.2-0.2-0.4c-0.3-0.6-0.4-1.6-0.2-2.9h6.6
												C637,268.1,636.7,270.4,635.8,270.6z M644.5,269.9L644.5,269.9c0,0.1-0.1,0.2-0.1,0.3c0,0-0.1,0.1-0.1,0.1
												c-0.1,0.2-0.3,0.3-0.6,0.3c-0.2,0-0.5,0-0.8,0.1c0,0,0,0-0.1,0h0c-0.4,0-0.8,0.1-1.3,0.1c-0.4,0-0.8,0-1.2-0.1
												c-0.5-0.2-0.8-1.3-1-2.4v0c-0.1-0.4-0.1-0.8-0.1-1.1h5.4C644.9,268.3,644.8,269.3,644.5,269.9z"/>
											<path fill="#2E3442" d="M640.2,269.1c0.3-0.3,0.5-0.5,0.8-0.7c0.1-0.1,0.3-0.1,0.4-0.2c0,0,0.1,0,0.1,0c0,0,0.1,0,0.1,0
												c0,0,0.1,0,0.1,0c0,0,0.1,0,0.1,0c0.2,0.1,0.5,0.3,0.7,0.5c0.2,0.2,0.5,0.5,0.8,0.8c0-0.4-0.2-0.8-0.4-1.1
												c-0.1-0.1-0.1-0.2-0.2-0.2c0,0-0.1-0.1-0.1-0.1l-0.1-0.1c-0.2-0.1-0.4-0.3-0.6-0.3c-0.1,0-0.1,0-0.2,0
												c-0.1,0-0.1,0-0.2,0c-0.1,0-0.1,0-0.2,0c-0.1,0-0.1,0-0.2,0c-0.2,0.1-0.4,0.2-0.6,0.4
												C640.4,268.4,640.3,268.7,640.2,269.1z"/>
											<g>
												<g>
													<path fill="#2E3442" d="M635,265.3c0,0-3.2-1.4-5.8,1.8C629.2,267.2,631.8,261.4,635,265.3z"/>
												</g>
												<g>
													<path fill="#2E3442" d="M639.8,265.3c0,0,2.7-0.8,4.4,1.7C644.1,267,642.4,262.4,639.8,265.3z"/>
												</g>
												<path opacity="0.7" fill="#FFC0C4" d="M637.8,270.9c0.2-0.1,0.5-0.1,0.7-0.2c0.2,0,0.5-0.1,0.7-0.1c0.1,0,0.2,0,0.3,0
													c0.1,0,0.2,0.1,0.2,0.1c0,0.1,0.1,0.2,0.1,0.3c0,0.1,0,0.2,0,0.3c-0.1,0.4-0.3,0.8-0.6,1.1c-0.3,0.3-0.8,0.5-1.2,0.5
													c0.2,0.1,0.5,0.1,0.7,0c0.1,0,0.2-0.1,0.4-0.1c0.1-0.1,0.2-0.1,0.3-0.2c0.4-0.3,0.7-0.8,0.7-1.3c0-0.1,0-0.3,0-0.4
													c0,0,0-0.1,0-0.1c0,0,0-0.1,0-0.1c0,0,0-0.1,0-0.1c0,0,0-0.1-0.1-0.1l0,0c0,0,0,0-0.1,0c0,0,0,0-0.1,0c0,0,0,0,0,0
													c-0.1,0-0.1,0-0.2-0.1c-0.1,0-0.3,0-0.4,0c-0.2,0-0.5,0.1-0.7,0.2C638.2,270.7,638,270.8,637.8,270.9z"/>
												<path fill="#2E3442" d="M635.5,269c0-0.4-0.2-0.9-0.5-1.3c-0.2-0.2-0.4-0.3-0.6-0.4c-0.1,0-0.1,0-0.2-0.1
													c-0.1,0-0.1,0-0.2,0c-0.1,0-0.1,0-0.2,0c-0.1,0-0.1,0-0.2,0c-0.3,0-0.5,0.2-0.7,0.3l-0.1,0.1c0,0-0.1,0.1-0.1,0.1
													c-0.1,0.1-0.1,0.2-0.2,0.3c-0.3,0.4-0.4,0.8-0.5,1.2c0.3-0.3,0.6-0.6,0.9-0.9c0.3-0.3,0.6-0.5,0.9-0.5c0,0,0.1,0,0.1,0
													c0,0,0.1,0,0.1,0c0,0,0.1,0,0.1,0c0,0,0.1,0,0.1,0c0.2,0,0.3,0.1,0.5,0.2C635,268.4,635.2,268.7,635.5,269z"/>
												<g opacity="0.7">
													<path fill="#FFC0C4" d="M637.8,275.4c0.8,0,1.4-0.1,2-0.3c0.2-0.1,0.4-0.1,0.5-0.2c0.5-0.2,0.8-0.4,0.8-0.4
														c0.1-0.1,0.1-0.2,0-0.3c-0.1-0.1-0.2-0.1-0.3,0c0,0-0.3,0.2-0.7,0.4c-0.2,0.1-0.3,0.1-0.5,0.2c-1,0.4-2.7,0.6-4.8-0.4
														c-0.1-0.1-0.2-0.1-0.3-0.2c-0.6-0.3-1.1-0.7-1.7-1.1c-0.1-0.1-0.2-0.1-0.3,0c-0.1,0.1-0.1,0.2,0,0.3
														c0.6,0.5,1.2,0.9,1.7,1.2c0.1,0.1,0.2,0.1,0.4,0.2C635.8,275.2,636.9,275.4,637.8,275.4z"/>
												</g>
											</g>
											<g>
												<path fill="#FFC0C4" d="M623.5,266.9c0,0-1-3.5-3.1-3.5c-2.2-0.1-2.3,11.3,3,7.1L623.5,266.9z"/>
												<g opacity="0.7">
													<path fill="#FFC0C4" d="M622.9,268.7c-0.1,0-0.1,0-0.1-0.1c0,0-0.2-0.9-0.7-1.1c-0.2-0.1-0.5-0.1-0.8,0.1
														c-0.1,0-0.1,0-0.2,0c0-0.1,0-0.1,0-0.2c0.4-0.2,0.8-0.3,1.1-0.1c0.1,0,0.1,0.1,0.2,0.1c-0.3-0.6-0.7-1-1.2-1
														c-0.3,0-0.5,0.1-0.7,0.4c-0.2,0.2-0.2,0.4-0.2,0.4c0,0.1-0.1,0.1-0.2,0.1c-0.1,0-0.1-0.1-0.1-0.2c0,0,0.3-1,1.2-1.1
														c0.8,0,1.6,1.1,1.8,2.5C623,268.6,623,268.7,622.9,268.7C622.9,268.7,622.9,268.7,622.9,268.7z"/>
												</g>
											</g>
										</g>
									</g>
									<path fill="#314B87" d="M598.1,341.4h14.1l-1.5-6.4l-1.7-7.4l-1.2-5l3.3-10.4l2-6.2c0,0-1.4-13-6.8-17.8
										c0,0-13,25.7-14.3,32.9C591.2,323.7,594.9,333.7,598.1,341.4z"/>
								</g>
								<path fill="#3DB6C4" d="M775.6,327.2v4.4c0,5.4-4.4,9.8-9.8,9.8H592.4c-5.4,0-9.8-4.4-9.8-9.8v-4.4H775.6z"/>
								<g>
									<g>
										<rect x="591.3" y="330.5" fill="#FFFFFF" width="1.9" height="6.7"/>
										<rect x="595.1" y="330.5" fill="#FFFFFF" width="1.9" height="6.7"/>
									</g>
									<g>
										<rect x="602.6" y="333.3" opacity="0.5" fill="#2E3442" width="163.2" height="1.1"/>
										<g>
											<g>
												<path fill="#FFFFFF" d="M641.2,334.9h-38.6c-0.6,0-1.1-0.5-1.1-1.1s0.5-1.1,1.1-1.1h38.6c0.6,0,1.1,0.5,1.1,1.1
													S641.8,334.9,641.2,334.9z"/>
											</g>
											<circle fill="#FFFFFF" cx="641.2" cy="333.8" r="1.9"/>
										</g>
									</g>
								</g>
							</g>
						</g>
					</g>
					<g opacity="0.1">
						<polygon fill="#FFFFFF" points="808.6,396.8 741.9,396.8 612.5,199 679.2,199 						"/>
						<polygon fill="#FFFFFF" points="865.8,396.8 832.4,396.8 703,199 736.3,199 						"/>
					</g>
					<path fill="#232B54" d="M942.2,438.8H540.6c-4.4,0-7.9-3.6-7.9-7.9v-12.7h417.4v12.7C950.1,435.2,946.6,438.8,942.2,438.8z"/>
					<path fill="#314B87" d="M942.2,438.8H540.6c-4.4,0-7.9-3.6-7.9-7.9v-12.7h417.4v12.7C950.1,435.2,946.6,438.8,942.2,438.8z"/>
					<path fill="#FFFFFF" d="M701.6,418.2v5.4c0,2.4,1.9,4.3,4.3,4.3h70.9c2.4,0,4.3-1.9,4.3-4.3v-5.4H701.6z"/>
				</g>
				<g>
					<polygon fill="#2E3442" points="939.5,126.3 805.6,96.9 886.7,208 1021.3,236.2 					"/>
					<polygon opacity="0.5" points="937.8,128.9 807.3,99.1 886.7,208 1018.8,235.7 					"/>
					<path fill="#2E3442" d="M933.3,258.1l-111.5-72l7.2-9.4l32.5-42.8c0,0,24.3-1.2,59.2,21.4c34.9,22.6,43.8,45.2,43.8,45.2
						l-6.5,11.9L933.3,258.1z"/>
					<path opacity="0.3" d="M933.3,258.1l-111.5-72l7.2-9.4c79.7,64.9,129.1,35.7,129.1,35.7L933.3,258.1z"/>
					<g>
						<g>
							<path fill="#FFB727" d="M964.7,159.3c0,0-0.3-0.1-0.8-0.2c0.3,0.3,0.6,0.6,0.8,1c1.2,1.9,2.8,3.6,4.2,5.4
								c0.6,0.7,1.1,1.5,1.6,2.2c4.6,4.8,9.7,14.4,8.9,33l-2.8,65.3l4,0.2l2.8-65.3C984.9,165.1,965.5,159.6,964.7,159.3z"/>
						</g>
						<g>
							<path fill="#FFB727" d="M978.7,264.8c0,0-6,4.4-9,13c-3.6,11-0.4,15.8-0.4,15.8l3.3-6.2c0,0-0.6,3-0.8,7.8
								c-0.1,4.8,4.9,10,4.9,10s3.7-2.5,5.5-7.9c1.1-4,0.4-15.4,0.4-15.4l1.6,13.5c0,0,2-1.4,3.1-6.2
								C987.8,281.7,984.3,269.7,978.7,264.8z"/>
							<circle fill="#F2811C" cx="978.6" cy="266" r="5.3"/>
						</g>
					</g>
				</g>
			</g>
			<g>
				<g>
					<g>
						<path fill="#3DB6C4" d="M623.3,415.8c-0.1-0.1-0.5-0.8-1.3-1.9c-3.3-4.4-13-15-29.6-15H473.6v39.9H596
							c16.7,0,25.4-13,27.6-19.8l0.3-0.8l0.3-0.9L623.3,415.8z"/>
						<path opacity="0.5" fill="#2E3442" d="M623.3,415.8c-0.1-0.1-0.5-0.8-1.3-1.9c-3.3-4.4-13-15-29.6-15H473.6v39.9H596
							c16.7,0,25.4-13,27.6-19.8l0.3-0.8l0.3-0.9L623.3,415.8z"/>
						<path fill="#3DB6C4" d="M606,415.8c-0.1-0.1-0.5-0.8-1.3-1.9c-3.2-4.3-12.4-14.3-28-15c-0.3,0-0.5,0-0.8,0c-0.3,0-0.5,0-0.8,0
							H456.4v3.8h118.8c4.1,0,7.7,0.7,10.9,1.9c1.4,0.5,2.8,1.1,4,1.8c0.3,0.1,0.5,0.3,0.8,0.4c0.8,0.5,1.6,0.9,2.4,1.4
							c0.3,0.2,0.7,0.4,1,0.7c0.3,0.2,0.6,0.5,0.9,0.7c1.2,0.9,2.3,1.9,3.2,2.8c0.1,0.1,0.2,0.2,0.3,0.3c0.5,0.4,0.9,0.9,1.2,1.3
							c0,0,0,0,0,0h0c0.5,0.5,0.9,1,1.2,1.4c0,0,0,0,0,0c0.1,0.2,0.3,0.3,0.4,0.5c0.8,1.1,1.2,1.8,1.3,1.9c0,0,0,0,0,0v0
							c0,0,0,0,0,0v0c0,0-0.1,0.2-0.2,0.4c-0.3,0.8-1,2.5-2.4,4.7c-0.2,0.2-0.3,0.5-0.5,0.8v0c-3.4,5-9.9,11.4-21.1,11.4H456.4v3.8
							h122.4c16.7,0,25.4-13,27.6-19.8l0.3-0.8l0.3-0.9L606,415.8z"/>
						<path fill="#FFFFFF" d="M460.1,402.7c0,0,96.3,0,115,0c18.7,0,27.7,15.1,27.7,15.1s-5.7,17.3-24.1,17.3
							c-18.4,0-118.6,0-118.6,0V402.7z"/>
						<g>
							<g>
								<rect x="460.1" y="407.1" fill="#B7EBEA" width="126.6" height="0.9"/>
							</g>
							<g>
								<rect x="460.1" y="414" fill="#B7EBEA" width="130.4" height="0.9"/>
							</g>
							<g>
								<rect x="460.1" y="421" fill="#B7EBEA" width="130.4" height="0.9"/>
							</g>
							<g>
								<rect x="460.1" y="427.9" fill="#B7EBEA" width="126.6" height="0.9"/>
							</g>
						</g>
					</g>
					<path fill="#F2811C" d="M578.3,421c-0.7,1.1-2.2,2.3-2.2,9.1c0,4.2,0,7.4,0,7.4l-5.9-4.5l-4.9,4.5c0,0,0-3,0-10.9
						c0-0.8,0.1-1.5,0.2-2.1c0.3-1.5,1-2.7,1.8-3.6h10C577.8,421,578.3,421,578.3,421z"/>
				</g>
				<g>
					<g>
						<g>
							<path fill="#FFFFFF" d="M497.2,375.5c-0.4,0.1-0.7,0.5-0.6,1l2.8,12.5c0.1,0.4,0.7,1.5,1.2,1.4c0.4-0.1,0.5-1.4,0.5-1.8
								l-2.8-12.5C498.1,375.7,497.6,375.4,497.2,375.5z"/>
							<path fill="#FEC442" d="M479.9,287.9l-4.8,1.1c0,0-1.9-9-3.4-15.3c-0.9-3.9-1.1-6.3,0.8-6.8c1.9-0.4,3,1.7,3.9,5.5
								C478,278.8,479.9,287.9,479.9,287.9z"/>
							<path fill="#314B87" d="M501.2,378.5c0,0,2,7.7-1.5,8.6c-3.5,0.8-5-7.1-5-7.1l-11.4-50.5l6.4-1.5L501.2,378.5z"/>
							<path fill="#314B87" d="M485,337.9l3.8-0.9l2.9-0.7l0.3-0.1c0.4-0.1,0.6-0.8,0.5-1.6l-12-53.3l-1.3-5.9c0-0.1,0-0.2-0.1-0.2
								c0-0.1,0-0.1,0-0.2c0,0,0,0,0-0.1c0-0.1,0-0.2-0.1-0.2c-0.1-0.2-0.1-0.3-0.2-0.5c-0.1-0.2-0.2-0.4-0.2-0.5
								c-0.2-0.4-0.4-0.7-0.6-0.9c0,0-0.1-0.1-0.1-0.1c-0.1-0.1-0.2-0.2-0.3-0.3c-0.1-0.1-0.1-0.1-0.2-0.2c0,0-0.1,0-0.1-0.1
								c0,0-0.1,0-0.1-0.1c0,0-0.1,0-0.1-0.1c0,0-0.1,0-0.1-0.1c0,0-0.1,0-0.1,0c-0.1,0-0.1-0.1-0.2-0.1c-0.1,0-0.2,0-0.2,0
								c-0.2,0-0.3,0-0.5,0l-2.2,0.5l-1.6,0.4c-1.3,0.3-2,2.4-1.4,4.7l0.3,1.4l0.5,2.3l6.3,27.7l6.3,27.9
								C484.1,337.4,484.5,338,485,337.9z"/>
							<polygon fill="#FFFFFF" points="492.4,339.3 485.9,340.8 485.3,337.8 491.7,336.3 							"/>
						</g>
						<g>
							<path fill="#FFFFFF" d="M479.7,306.4c0.1,0.2,0.3,0.4,0.6,0.3l2-0.5c0.1,0,0.1,0,0.2-0.1c0.2-0.1,0.3-0.3,0.3-0.5l-6-27.6
								c0-0.1-3.1,0.6-3.1,0.7L479.7,306.4z"/>
						</g>
					</g>
					<g>
						<path fill="#FEC442" d="M479.2,398.7h58.1c0-1.1-1.2-4.3-3.4-5.9c-0.4-0.3-0.9-0.6-1.4-0.7c-5.2-1.8-14.1,0-24.3,0
							c-10,0-18.9-1.8-24.1,0c-0.5,0.2-1.1,0.5-1.5,0.8C480.4,394.5,479.2,397.6,479.2,398.7z"/>
					</g>
					<g>
						<g>
							<g>
								<path fill="#DA3E52" d="M540.3,273.9c0.9-1.1,2-1.6,3.1-1.4l1.5,0.4c1.7,0.4,2.5,2.7,1.9,5.1l-9.9,36.9l-5.1-1.4l-2.5-0.7
									c0,0,0,0,0,0l9.9-36.9C539.5,275.2,539.9,274.5,540.3,273.9z"/>
								<path fill="#F2811C" d="M540.3,273.9c0.9-1.1,2-1.6,3.1-1.4l1.5,0.4c1.7,0.4,2.5,2.7,1.9,5.1l-9.9,36.9l-5.1-1.4l-2.5-0.7
									c0,0,0,0,0,0l9.9-36.9C539.5,275.2,539.9,274.5,540.3,273.9z"/>
							</g>
							<path fill="#FFFFFF" d="M538.1,280.4l-1.1,4.2l-1.4,5.1l-3.7,13.6l0,0l-1.6,5.9l0,0.1c0,0,0,0,0,0c0,0,0,0,0,0l2.5,0.7l0.1,0
								l2.5,0.7l0,0l2.5,0.7c0,0,0,0,0,0c0,0,0,0,0,0l0-0.1l1.6-5.9l2.6-9.7l2.4-9.1l1.1-4.2c0,0,0,0,0,0c0,0,0,0,0,0l-2.5-0.7l0,0
								l-2.5-0.7l0,0L538.1,280.4C538.1,280.4,538.1,280.4,538.1,280.4z"/>
							<polygon fill="#3DB6C4" points="508.2,390 516.3,391.8 531.4,335.6 536.9,315 537.9,311.5 538.2,310.2 541.8,297 
								542.1,295.9 544.6,286.7 544.6,286.7 542.4,286.1 542,286 542,286 539.5,285.3 539.5,285.3 539.2,285.2 537,284.7 
								535.5,290.1 533.4,298 523.8,333.5 523.8,333.5 							"/>
						</g>
					</g>
					<g>
						<path fill="#2E3442" d="M505,385l-1.1,0.9c0,0,0.9,2.3,1.4,2.3c0.5,0.1,0.9-2.5,0.9-2.5L505,385z"/>
						<path fill="#F2811C" d="M500.9,378.9l3,7c0,0,1.3,0.6,2.3-0.2l1.6-7.5C507.8,378.3,504.4,376.9,500.9,378.9z"/>
						<path fill="#F2811C" d="M497.9,281.5l-0.5-7.7c0,0,5.7,2.3,7.2,5.5c1.4,3.2,2,29.9,2,29.9s-2.4-0.3-3.1-2.5
							c-0.7-2.2,0.7-3.7,0.7-3.7s-1-12.1-1.5-15.9C502.2,283.3,497.9,281.5,497.9,281.5z"/>
						<g>
							<path fill="#F2811C" d="M494.9,263.2c-4.3-2.4-7.7,0.7-7.7,0.7l1.7,7.7c2.9,1.5,5.3-0.5,5.3-0.5L494.9,263.2z"/>
						</g>
						<path fill="#2E3442" d="M497.9,270c-8.2-3.1-12.4,1.3-12.6,1.6l0,0l15.7,107.3c5.1,2.2,6.9-0.6,6.9-0.6L497.9,270z"/>
					</g>
					<g>
						<path fill="#FEC442" d="M475.7,314.1l5.4,49.9l1.8,16.6l0.7,6.2l0.3,2.8l0.3,2.6h48.2l3.1-28.6l4.7-43.8c0,0,0,0,0,0l0.6-5.6
							c-0.9-0.2-1.8-0.4-2.7-0.6c0,0,0,0,0,0c-0.2,0-0.4-0.1-0.7-0.1c-3.6-0.8-7.2-1.4-10.8-1.8
							C509.5,309.3,492.4,310.5,475.7,314.1z"/>
						<path opacity="0.6" fill="#2E3442" d="M483.6,386.8l0.3,2.8l0.3,2.6h48.2l3.1-28.6l4.7-43.8
							C539.8,321.5,530.1,378.8,483.6,386.8z"/>
					</g>
				</g>
			</g>
			<g>
				<g>
					<g>
						<path fill="#F2811C" d="M848.4,398.9c-16.6,0-26.3,10.6-29.6,15c-0.8,1-1.2,1.7-1.3,1.9l-0.9,1.5l0.3,0.9l0.3,0.8
							c2.3,6.9,11,19.8,27.7,19.8h122.4v-39.9H848.4z"/>
						<path opacity="0.5" fill="#2E3442" d="M848.4,398.9c-16.6,0-26.3,10.6-29.6,15c-0.8,1-1.2,1.7-1.3,1.9l-0.9,1.5l0.3,0.9
							l0.3,0.8c2.3,6.9,11,19.8,27.7,19.8h122.4v-39.9H848.4z"/>
						<path fill="#F2811C" d="M838,417.7c0-0.1,0.5-0.8,1.3-1.9c0.1-0.2,0.3-0.3,0.4-0.5c0,0,0,0,0,0c0.4-0.4,0.8-0.9,1.2-1.4h0
							c0,0,0,0,0,0c0.4-0.4,0.8-0.9,1.2-1.3c0.1-0.1,0.2-0.2,0.3-0.3c0.9-0.9,2-1.9,3.2-2.8c0.3-0.2,0.6-0.5,0.9-0.7
							c0.3-0.2,0.7-0.5,1-0.7c0.8-0.5,1.5-1,2.4-1.4c0.2-0.1,0.5-0.3,0.8-0.4c1.3-0.6,2.6-1.2,4-1.8c3.2-1.1,6.8-1.9,10.9-1.9h118.8
							v-3.8H865.7c-0.3,0-0.5,0-0.8,0c-0.3,0-0.5,0-0.8,0c-15.7,0.7-24.8,10.8-28,15c-0.8,1-1.2,1.7-1.3,1.9l-0.9,1.5l0.3,0.9
							l0.3,0.8c2.3,6.9,11,19.8,27.6,19.8h122.4V435H862.1c-10.6,0-17-5.8-20.5-10.6v0c-0.2-0.3-0.4-0.5-0.5-0.8v0
							c-0.2-0.3-0.3-0.5-0.5-0.8c-1.3-2.1-2.1-3.9-2.4-4.7C838.1,417.9,838,417.8,838,417.7L838,417.7
							C838,417.7,838,417.7,838,417.7L838,417.7C838,417.7,838,417.7,838,417.7z"/>
						<path fill="#FFFFFF" d="M980.7,402.7c0,0-96.3,0-115,0c-18.7,0-27.7,15.1-27.7,15.1s5.7,17.3,24.1,17.3
							c18.4,0,118.6,0,118.6,0V402.7z"/>
						<g>
							<g>
								<rect x="854" y="407.1" fill="#B7EBEA" width="126.6" height="0.9"/>
							</g>
							<g>
								<rect x="850.3" y="414" fill="#B7EBEA" width="130.4" height="0.9"/>
							</g>
							<g>
								<rect x="850.3" y="421" fill="#B7EBEA" width="130.4" height="0.9"/>
							</g>
							<g>
								<rect x="854" y="427.9" fill="#B7EBEA" width="126.6" height="0.9"/>
							</g>
						</g>
					</g>
					<path fill="#FFB727" d="M860.3,414c0.7,1.1,2.2,2.3,2.2,9.1c0,4.2,0,7.4,0,7.4l5.9-4.5l4.9,4.5c0,0,0-3,0-10.9
						c0-0.8-0.1-1.5-0.2-2.1c-0.3-1.5-1-2.7-1.8-3.6h-10C860.8,414,860.3,414,860.3,414z"/>
				</g>
				<g>
					<g>
						<path fill="#FFB727" d="M869.3,358.9c-7.5,0-13.6,2.1-18.3,4.9c-1.8,1-3.4,2.2-4.8,3.3c-5.1,4.1-7.7,8.4-7.9,8.7l-0.9,1.5
							l0.5,1.6c0.6,1.7,1.5,3.7,2.8,5.8c2.9,4.5,7.6,9.5,14.4,12.1c3.1,1.2,6.5,1.9,10.5,1.9h122.4v-39.9H869.3z"/>
						<path opacity="0.6" fill="#2E3442" d="M869.3,358.9c-7.5,0-13.6,2.1-18.3,4.9c-1.8,1-3.4,2.2-4.8,3.3
							c-5.1,4.1-7.7,8.4-7.9,8.7l-0.9,1.5l0.5,1.6c0.6,1.7,1.5,3.7,2.8,5.8c2.9,4.5,7.6,9.5,14.4,12.1c3.1,1.2,6.5,1.9,10.5,1.9
							h122.4v-39.9H869.3z"/>
						<path fill="#FFB727" d="M858.9,377.7c0.1-0.1,0.6-0.9,1.5-2.1c0.1-0.2,0.3-0.3,0.4-0.5c0.3-0.4,0.7-0.8,1.1-1.2
							c0.1-0.1,0.1-0.2,0.2-0.3c0.3-0.3,0.6-0.7,1-1c0.1-0.1,0.2-0.2,0.3-0.3c0.1-0.1,0.2-0.2,0.3-0.3c0.1-0.1,0.3-0.3,0.4-0.4
							c0.3-0.2,0.5-0.5,0.8-0.7c0.5-0.5,1.1-0.9,1.7-1.4c0.3-0.2,0.6-0.5,1-0.7h0c0.9-0.7,1.9-1.3,3-1.9c0.6-0.4,1.3-0.7,1.9-1
							c0,0,0,0,0,0c1.8-0.9,3.8-1.6,5.9-2.2c2.5-0.6,5.2-1,8.2-1h118.8v-3.8H886.6c-0.5,0-1.1,0-1.6,0c-4.8,0.2-9,1.3-12.6,2.8
							c-1.4,0.6-2.6,1.2-3.8,1.9c-1.8,1-3.3,2.1-4.7,3.2c-0.8,0.6-1.5,1.3-2.2,1.9c-1.2,1.1-2.3,2.2-3.1,3.2c-0.6,0.7-1,1.3-1.5,1.8
							c-0.8,1.1-1.3,1.9-1.4,2l-0.9,1.5l0.5,1.6c1.7,5.3,7.2,14.1,17.2,17.9c2.7,1.1,5.8,1.7,9.1,1.9c0.4,0,0.9,0,1.3,0h122.4V395
							H883c-0.5,0-0.9,0-1.3,0c-7.6-0.4-12.9-3.7-16.5-7.4c0,0,0,0,0,0c-0.3-0.3-0.5-0.5-0.8-0.8C860.6,382.4,859,378,858.9,377.7
							L858.9,377.7C858.9,377.7,858.9,377.7,858.9,377.7L858.9,377.7C858.9,377.7,858.9,377.7,858.9,377.7z"/>
						<path fill="#FFFFFF" d="M1001.6,362.7c0,0-96.3,0-115,0c-18.7,0-27.7,15.1-27.7,15.1S864.6,395,883,395
							c18.4,0,118.6,0,118.6,0V362.7z"/>
						<g>
							<g>
								<rect x="875" y="367.1" fill="#B7EBEA" width="126.6" height="0.9"/>
							</g>
							<g>
								<rect x="871.2" y="374" fill="#B7EBEA" width="130.4" height="0.9"/>
							</g>
							<g>
								<rect x="871.2" y="380.9" fill="#B7EBEA" width="130.4" height="0.9"/>
							</g>
							<g>
								<rect x="875" y="387.8" fill="#B7EBEA" width="126.6" height="0.9"/>
							</g>
						</g>
					</g>
					<path fill="#3DB6C4" d="M879.5,387.8c0.7,1.1,2.2,2.3,2.2,9.1c0,4.2,0,7.4,0,7.4l5.9-4.5l4.9,4.5c0,0,0-3,0-10.9
						c0-0.8-0.1-1.5-0.2-2.1c-0.3-1.5-1-2.7-1.8-3.6h-10C880,387.8,879.5,387.8,879.5,387.8z"/>
				</g>
				<g>
					<path fill="#B25A1F" d="M910.5,358c0.4,0.3,1,0.5,1.5,0.5c1.5,0,2.8-1.2,2.8-2.8l0.8-127.9c0-1.5-2.7-6.9-2.7-6.9
						s-2.9,5.3-2.9,6.9l-0.8,127.9C909.2,356.6,909.7,357.5,910.5,358z"/>
					<g>
						<path fill="#B25A1F" d="M898.2,351c-3.8,1.1-7.6,2.7-11.4,4.8l0,3l50.1,0.2l0-3C923.5,349,910.6,347.5,898.2,351z"/>
						<path opacity="0.2" fill="#2E3442" d="M886.9,355.8l0,3l50.1,0.2l0-3c0,0-30,1.7-38.7-5C894.4,352.1,890.6,353.7,886.9,355.8z
							"/>
					</g>
					<path fill="#B25A1F" d="M953.1,319.2c-5.1,6.4-11.8,11.4-19.4,14.6c-2.2,0.9-4.4,1.6-6.7,2.2c-3.9,1-8,1.5-12.1,1.5
						c-0.6,0-1.3,0-1.9-0.1c-0.4,0-0.7,0-1.1-0.1c-0.1,0-0.2,0-0.3,0l-0.4-0.1c-0.2,0-0.3,0-0.5-0.1l-0.2,0c-0.2,0-0.5-0.1-0.7-0.1
						c-0.1,0-0.1,0-0.2,0c-0.1,0-0.2,0-0.3-0.1h0c0,0,0,0-0.1,0c-0.2,0-0.3,0-0.4-0.1c-0.4-0.1-0.7-0.1-1-0.2l-1.4-0.3
						c-0.2,0-0.3-0.1-0.5-0.1c0,0-0.1,0-0.1,0c-0.5-0.1-0.9-0.2-1.4-0.3c-0.6-0.2-1.3-0.3-1.9-0.5l-0.5-0.1c0,0-0.1,0-0.1,0
						c-0.1,0-0.2-0.1-0.4-0.1L901,335c-0.6-0.2-1.2-0.4-1.8-0.6c-0.1,0-1-0.3-2.5-0.9c-0.2-0.1-0.3-0.2-0.5-0.2
						c-0.2-0.1-0.4-0.2-0.6-0.3c0,0-0.1,0-0.1-0.1l-0.1-0.1c-0.2-0.1-0.3-0.1-0.5-0.2c-0.2-0.1-0.4-0.2-0.5-0.2c0,0-0.1,0-0.1-0.1
						c-0.1,0-0.1-0.1-0.2-0.1l-0.2-0.1c0,0-0.1,0-0.1,0l-0.7-0.3c0,0-0.1,0-0.1,0c-0.4-0.2-0.9-0.5-1.4-0.7l-0.5-0.3
						c-0.2-0.1-0.3-0.2-0.5-0.3c-0.4-0.2-0.8-0.4-1.2-0.7l-0.3-0.2c-0.3-0.2-0.6-0.4-0.9-0.5c-1.2-0.7-2.3-1.5-3.4-2.3
						c-0.6-0.4-1.1-0.8-1.7-1.3c-1-0.9-1.9-1.7-2.8-2.7c-2-2.1-3.8-4.3-5.4-6.6c-0.9-1.3-1.7-2.6-2.4-3.9c-2.2-4-3.9-8.3-4.9-12.8
						c-1.4-6.1-1.6-12.4-0.5-18.7c0.9-5.2,2.6-10.2,5-14.8c1.8-3.5,4.1-6.7,6.7-9.6c1-1.2,2.2-2.3,3.3-3.3c0.8-0.7,1.6-1.4,2.4-2.1
						c0.2-0.2,0.5-0.4,0.7-0.6c4.8-3.7,10.2-6.5,16-8.2c2.8-0.8,5.7-1.4,8.6-1.7c1-0.1,2-0.2,3.1-0.2c0.8,0,1.7-0.1,2.5,0
						c2.2,0,4.3,0.2,6.5,0.5c0.4,0,0.7,0.1,1.1,0.2l0.9-5.5c-2.8-0.5-5.7-0.7-8.5-0.7c-0.9,0-1.7,0-2.6,0c-0.1,0-0.2,0-0.4,0
						c-0.9,0-1.8,0.1-2.7,0.2c-3.4,0.3-6.8,1-10.2,2c-1.1,0.3-2.2,0.7-3.3,1.1c-2.9,1.1-5.7,2.4-8.4,3.9c-2.1,1.2-4.2,2.6-6.1,4.1
						c-0.3,0.2-0.6,0.4-0.8,0.7c-0.9,0.7-1.8,1.5-2.7,2.3c-1.3,1.2-2.5,2.4-3.7,3.7c-2.9,3.3-5.5,6.9-7.5,10.7
						c-0.3,0.6-0.6,1.1-0.9,1.7c-2.3,4.7-3.9,9.7-4.7,14.9c-1.2,7-1,14,0.6,20.8c0.2,0.7,0.3,1.3,0.5,2c0.9,3.3,2.1,6.5,3.6,9.6
						c0.6,1.3,1.3,2.7,2.1,3.9c1.4,2.3,2.9,4.5,4.6,6.6c1.1,1.4,2.3,2.7,3.5,3.9c1,1,2.1,2,3.2,3c0,0,0,0,0.1,0.1
						c1.5,1.2,3.1,2.4,4.8,3.5c0.2,0.2,0.5,0.3,0.8,0.5c0,0,0.1,0,0.1,0.1c0.3,0.2,0.6,0.4,0.9,0.6c0.1,0.1,0.2,0.1,0.3,0.2
						c0.4,0.3,0.9,0.5,1.3,0.8c0.2,0.1,0.4,0.2,0.6,0.3l0.5,0.3c0.5,0.3,1,0.6,1.5,0.8c0.1,0,0.2,0.1,0.3,0.1l0.7,0.4
						c0.1,0,0.1,0.1,0.2,0.1c0.1,0,0.2,0.1,0.2,0.1c0.2,0.1,0.4,0.2,0.6,0.3c0.2,0.1,0.3,0.2,0.5,0.2c0.1,0,0.1,0,0.2,0.1l0.2,0.1
						c0.3,0.1,0.5,0.2,0.7,0.3c0.2,0.1,0.3,0.1,0.4,0.2c0,0,0.1,0,0.1,0c1.8,0.7,2.9,1.1,3,1.1c0.6,0.2,1.3,0.4,2,0.6l0.5,0.2
						c0.2,0.1,0.4,0.1,0.6,0.2l0.5,0.1c0.7,0.2,1.4,0.4,2.1,0.6c0.5,0.1,1,0.2,1.6,0.4c0,0,0.1,0,0.1,0c0.1,0,0.3,0.1,0.4,0.1
						c0,0,0.1,0,0.1,0l1,0.2c0.2,0,0.4,0.1,0.5,0.1c0.3,0.1,0.7,0.1,1.1,0.2c0.1,0,0.3,0.1,0.5,0.1c0.1,0,0.2,0,0.4,0.1
						c0,0,0.1,0,0.2,0c0.1,0,0.2,0,0.3,0c0.2,0,0.3,0,0.5,0.1l0.1,0c0.2,0,0.4,0.1,0.6,0.1l0.4,0.1c0,0,0.1,0,0.1,0l0.2,0
						c0.1,0,0.1,0,0.2,0c0.5,0,1,0.1,1.6,0.1c0.6,0,1.2,0,1.9,0c4.1,0,8.1-0.4,12.1-1.3c3-0.7,6-1.6,8.8-2.8
						c8.4-3.5,15.9-9.1,21.6-16.2L953.1,319.2z"/>
					<g>
						<g>
							<path fill="#3DB6C4" d="M955,276.5c0.4,1.5,0.8,3.1,1.1,4.6c0.3,1.6,0.5,3.1,0.6,4.7c0.1,1.5,0.1,3,0.1,4.5
								c-0.2,5.8-1.5,11.3-3.8,16.2c-1.5,3.3-3.4,6.4-5.6,9.2c0,0,0,0,0,0c-3.5,4.4-7.8,8-12.7,10.8c-1.7,0.9-3.4,1.6-5,2.3
								c-0.3,0.1-0.6,0.2-0.9,0.3c-0.1,0-0.2,0.1-0.3,0.1c-0.4,0.1-0.7,0.3-1.1,0.4c-0.2,0.1-0.4,0.1-0.5,0.2
								c-0.2,0-0.3,0.1-0.5,0.1c-0.5,0.1-0.9,0.3-1.3,0.4c-0.1,0-0.2,0-0.2,0.1c-0.2,0-0.3,0.1-0.5,0.1c-0.1,0-0.2,0-0.2,0.1
								c-0.1,0-0.2,0-0.3,0.1c-0.2,0-0.3,0.1-0.5,0.1c-0.2,0-0.3,0.1-0.5,0.1c-0.1,0-0.2,0-0.2,0c-0.2,0.1-0.4,0.1-0.6,0.1
								c-0.1,0-0.3,0.1-0.4,0.1c-1.5,0.3-2.4,0.4-2.4,0.4c-0.6,0.1-1.1,0.1-1.7,0.2c-0.2,0-0.3,0-0.5,0c-0.1,0-0.3,0-0.4,0
								c-0.2,0-0.3,0-0.5,0c-0.6,0-1.2,0.1-1.8,0.1c-0.4,0-0.9,0-1.3,0c0,0,0,0,0,0c-0.1,0-0.3,0-0.4,0c-0.3,0-0.6,0-0.9,0
								c-0.1,0-0.3,0-0.4,0c-0.3,0-0.6,0-0.9,0c-0.1,0-0.3,0-0.4,0c-0.1,0-0.3,0-0.4,0c0,0-0.1,0-0.1,0c-0.3,0-0.5,0-0.8-0.1
								c-0.1,0-0.3,0-0.4,0c-0.1,0-0.3,0-0.4,0c-0.1,0-0.2,0-0.3,0c-0.1,0-0.1,0-0.2,0c-6.7-0.9-13-3.4-18.3-7c-3-2-5.7-4.4-8.1-7.1
								c-0.3-0.4-0.7-0.8-1-1.2c-1-1.2-2-2.5-2.8-3.8c-0.9-1.3-1.7-2.7-2.4-4.1c-1.4-2.8-2.6-5.7-3.4-8.8c-1.1-4-1.5-8.2-1.4-12.6
								c0-1,0.1-2,0.2-2.9c1-9.5,5-18.1,11.1-24.8c0.2-0.2,0.4-0.5,0.7-0.7c1-1.1,2.1-2.1,3.3-3.1c8-6.8,18.4-10.7,29.6-10.3
								c1.4,0.1,2.8,0.2,4.2,0.3c5.2,0.7,10.2,2.3,14.6,4.7c1.9,1,3.6,2.1,5.3,3.3c2.7,1.9,5.1,4.2,7.2,6.7c0.2,0.2,0.4,0.4,0.5,0.6
								c0.6,0.7,1.2,1.5,1.7,2.2c0.8,1.1,1.6,2.3,2.3,3.5C952.6,269.9,954,273.1,955,276.5z"/>
							<g opacity="0.5">
								<path fill="#2E3442" d="M927.8,257c-0.2-0.2-0.7-0.2-0.9-0.2c-0.3,0-0.9,0.3-1.1,0.6c-0.3,0.3-0.5,1.2-0.5,1.6
									c0,0.2,0,0.8,0.2,0.9c0.2,0.1,0.8-0.1,1-0.3c0.5-0.3,1.3-1.2,1.5-1.7C928,257.7,928,257.2,927.8,257z"/>
								<path fill="#2E3442" d="M931.8,252.5c0,0.3,0.2,0.9,0.5,1c0.2,0.1,0.8-0.2,1.1-0.1c0.4,0.2,0.6,1.3,1,1.4
									c0.5,0.1,1.1-1.3,1.6-1.2c0.5,0.1,1.1,1.5,0.8,2c-0.1,0.1-0.4,0.1-0.5,0.1c-0.4,0.1-1.2,0.1-1.5,0.2
									c-0.4,0.1-1.3,0.4-1.6,0.7c-0.5,0.5-0.5,2.1-1,2.6c-0.4,0.4-1.9,0.4-2.2,0.9c-0.3,0.4-0.2,1.7,0.2,2c0.2,0.2,0.8-0.2,1,0
									c0.2,0.2,0.3,1.1,0,1.3c-0.4,0.4-1.8,0-2.4,0.1c-0.5,0.1-1.7,0.5-2,1c-0.2,0.3-0.2,0.9-0.2,1.2c0.1,0.6,0.5,1.9,1,2.3
									c0.3,0.2,1,0.3,1.4,0.3c0.5,0,1.5-0.4,2-0.5c0.3-0.1,1.1-0.2,1.4-0.5c0.2-0.2,0.1-0.9,0.1-1.2c0.2-0.9,0.7-2.8,1.5-3.3
									c0.3-0.2,1.2,0.1,1.5-0.1c0.4-0.2,0.6-1.6,1.1-1.6c0.3,0,0.3,0.7,0.5,0.9c0.8,0.7,3.6,0.5,4,1.4c0.1,0.2-0.1,0.5-0.3,0.6
									c-0.3,0.3-1.5-0.1-1.6,0.3c-0.1,0.3,0.6,0.6,0.8,0.7c0.2,0.1,0.8,0.1,1,0c0.3-0.1,0.9-0.4,1-0.7c0.1-0.3-0.5-1-0.4-1.3
									c0-0.1,0.4-0.2,0.4-0.4c0-0.1-0.4-0.3-0.5-0.3c-0.6-0.3-2.1-0.3-2.6-0.7c-0.4-0.3-1.2-1.1-1-1.5c0.2-0.4,1.4-0.5,1.9-0.5
									c0.2,0,0.6,0.3,0.8,0.4c0.5,0.3,1.6,0.6,2,1c0.3,0.3,0.2,1.3,0.5,1.7c0.3,0.4,1.1,1.1,1.7,1.3c0.2,0.1,0.4,0.1,0.5,0
									c0.3-0.1,0.2-0.6,0.1-1.1c-0.1-0.6-0.3-1.2-0.1-1.5c0.1-0.3,0.5-0.8,0.9-0.9c-3.5-4.1-7.7-7.5-12.5-10
									c-0.5,0.3-1,0.5-1.3,0.8C932.2,251.6,931.8,252.2,931.8,252.5z"/>
								<path fill="#2E3442" d="M929.8,259.4c0.4-0.1,1.3-0.3,1.7-0.6c0.3-0.2,0.8-0.9,0.6-1.2c-0.1-0.2-0.8,0-1-0.1
									c-0.2-0.1-0.5-0.3-0.7-0.4c-0.3-0.2-0.9-0.7-1.1-1c-0.3-0.4-0.4-1.5-0.8-1.6c-0.4-0.1-1.1,0.4-1.4,0.6
									c-0.1,0.1-0.2,0.5-0.2,0.7c0,0.2,0.1,0.6,0.2,0.7c0.1,0.2,0.6,0.2,0.8,0.3c0.3,0.1,0.9,0.2,1.1,0.4c0.1,0.1,0.3,0.5,0.3,0.7
									c-0.1,0.3-0.9,0.2-1,0.5c-0.2,0.3-0.1,1.3,0.2,1.5C928.8,259.9,929.5,259.5,929.8,259.4z"/>
								<path fill="#2E3442" d="M947.1,262.5c0.3,0.3,0.9,0.8,1.4,0.9c-0.5-0.8-1.1-1.5-1.7-2.2
									C946.9,261.6,946.9,262.2,947.1,262.5z"/>
								<path fill="#2E3442" d="M901.8,269.3c-0.2,0.1-0.3,0.4-0.3,0.6c0,0.2,0,0.6,0.1,0.6c0.2,0.1,0.8-0.1,0.9-0.3
									c0.1-0.1,0-0.5-0.1-0.6C902.4,269.5,902,269.3,901.8,269.3z"/>
								<path fill="#2E3442" d="M871.4,284.7c0.7,0.6,0.4,2.6,0.9,3.4c0.4,0.8,1.7,2.2,2.5,2.5c0.3,0.1,1.2,0.1,1.5-0.1
									c0.2-0.2,0-0.8-0.1-1c-0.3-0.7-1.9-1.5-2.3-2.1c-0.4-0.5-1.3-1.8-1-2.4c0.1-0.2,0.8-0.4,1-0.2c0.6,0.3,0.7,1.9,1.1,2.4
									c0.7,0.9,3,1.8,3.3,2.9c0.1,0.3-0.4,1-0.3,1.3c0.2,0.7,1.5,1.7,2.1,1.9c1,0.4,3.5,0.8,4.1,0c0.1-0.1-0.2-0.5-0.2-0.6
									c0.2-0.3,1.3-0.4,1.6-0.2c0.2,0.2-0.1,0.9,0.1,1.1c0.2,0.2,0.9-0.1,1.3-0.1c0.5,0,1.5-0.1,2,0c1,0.3,2.4,2.1,3.4,2.3
									c0.9,0.2,2.7-1,3.4-0.6c0.6,0.3,1.1,1.9,1,2.6c-0.1,0.7-1.7,1.5-1.9,2.1c-0.2,0.6,0.4,1.8,0.5,2.4c0,0.4-0.1,1.2,0,1.6
									c0.5,1,2.8,1.9,4,2.8c0.2,0.1,0.3,0.3,0.4,0.4c0.2,0.3,0.3,1.1,0.6,1.3c0.3,0.2,1.3,0,1.4,0c0.1,0,2.6,0.6,3.2,1.2
									c1.3,1.4,0.4,6.2,1.9,7.4c0.2,0.2,0.8-0.1,1,0c0.7,0.6-0.2,2.8,0.2,3.5c0.3,0.6,1.7,1.1,2.1,1.6c0.2,0.4,0.3,1,0.3,1.7
									c0,0.1,0,0.3,0,0.4c0,0.4,0.1,0.8,0.1,1.1c0,0.1,0.1,0.2,0.1,0.3c0.5,0.9,2.1,2.4,2.9,3c0.7,0.5,2.3,1.5,3.2,1.6
									c0.7,0.1,2.2-0.1,2.6-0.6c0.1-0.2,0.2-0.7,0-0.9c-0.3-0.5-2-0.6-2.3-1.1c-0.1-0.2-0.1-0.6-0.1-0.8c0-0.3,0.1-0.8,0.1-1.1
									c0-0.1,0-0.4,0-0.7c0-0.1-0.1-0.3-0.2-0.3c-0.3-0.2-1,0.4-1.3,0.3c-0.3-0.1-0.8-0.4-0.9-0.6c-0.1-0.4,0.7-0.9,0.8-1.3
									c0.1-0.2,0.1-0.7,0-0.8c-0.2-0.2-1.1,0.2-1.3,0c-0.1-0.1-0.2-0.6-0.1-0.7c0.2-0.4,1.3-0.5,1.7-0.7c0.6-0.4,1.9-1.3,2.3-1.9
									c0.1-0.2,0.2-0.6,0.3-0.9c0.1-0.3,0.1-0.7,0.2-0.9c0.3-0.8,1.1-2.4,1.4-3.2c0.1-0.2,0.4-0.7,0.4-0.9c0-0.7-1-1.9-1.3-2.5
									c0,0,0,0,0,0c0,0,0,0,0,0c0.1-0.4,0.2-1.3,0.5-1.6c0.5-0.4,2-0.2,2.5-0.6c0.5-0.3,1.2-1.2,1.4-1.7c0.4-1.3-1-4-0.8-5.3
									c0.1-0.8,1.1-2.1,1.3-2.8c0.1-0.4,0.2-1.3-0.1-1.6c-0.3-0.3-1.4,0.1-1.9-0.1c-0.5-0.2-1.1-1.4-1.6-1.5
									c-1-0.3-2.9,0.9-3.9,0.9c-0.3,0-0.9-0.1-1.2-0.1c-0.5-0.1-1.7,0.1-2.2-0.2c-0.4-0.4-0.4-1.6-0.7-2.1c-0.3-0.4-1-1.4-1.5-1.5
									c-0.7-0.2-2.1,0.8-2.8,0.7c-0.7-0.2-1.6-1.7-2.2-2.1c-0.4-0.2-1.3-0.6-1.6-0.3c-0.1,0.1,0.2,0.6,0.1,0.8
									c-0.4,0.6-1.9,0.9-2.6,0.8c-0.4-0.1-0.9-0.9-1.3-1.1c-0.7-0.2-2.3-0.2-2.9,0.1c-0.7,0.5-0.9,2.6-1.6,3.1
									c-0.8,0.5-2.9,0.8-3.7,0.3c-0.8-0.6-0.4-3.3-1.2-3.8c-0.6-0.4-2.2,0.7-2.7,0.2c-0.4-0.4,0.6-1.6,0.5-2.2c0-0.3-0.3-1-0.6-1
									c-1-0.1-1.9,2.6-2.8,3c-0.5,0.3-1.7,0.5-2.2,0.3c-0.4-0.2-1-1-1.2-1.4c-0.1-0.4,0-1.3,0-1.8c0.1-0.6,0.3-1.9,0.6-2.4
									c0.4-0.6,1.7-1.6,2.4-2c1.2-0.6,4.1-2,5.2-1.3c0.3,0.2,0.1,1.3,0.4,1.6c0.4,0.4,1.7,0.8,2.1,0.4c0.4-0.5-0.7-1.7-0.8-2.4
									c0-0.1,0-0.1,0-0.2c0.1-0.5,0.7-1.3,1-1.7c0.5-0.7,2-1.6,2.3-2.4c0.1-0.3-0.2-1-0.1-1.3c0.2-1,1.4-2.7,2-3.4
									c0.5-0.7,2.6-1.5,2.5-2.3c0-0.1-0.3-0.1-0.3-0.1c-0.2-0.6,0.9-2,1.5-2.3c0.2-0.1,0.6-0.1,0.8,0c0.1,0,0.3,0.3,0.4,0.3
									c0.3-0.1,0.4-0.8,0.5-1c0,0,0.2-0.1,0.2-0.1c-0.1-0.2-0.6,0.1-0.8,0.1c-0.2,0-0.7,0.1-0.9-0.1c-0.2-0.1-0.2-0.6-0.2-0.8
									c0-0.1,0.2-0.4,0.3-0.5c0.2-0.1,0.7-0.2,1-0.2c0.1,0,0.4,0,0.5,0.1c0.2,0.1,0.4,0.6,0.6,0.7c0.1,0,0.4-0.1,0.5-0.2
									c0,0,0-0.1,0-0.1c0,0,0.1,0,0.1,0c0.3-0.1,1.1-0.3,1.3-0.5c0.1-0.1-0.1-0.6,0-0.7c0.2-0.1,0.7-0.1,0.8,0
									c0.1,0.1,0.2,0.5,0.2,0.7c0,0.2-0.7,0.5-0.6,0.7c0,0,0,0,0,0c0.2,0.1,0.1,0.6,0.3,0.7c0.4,0.3,1.4,0.1,1.9,0.1
									c0.2,0,0.6-0.1,0.7,0c0,0,0,0,0,0c0.1,0.1,0.5-0.1,0.6-0.2c0.1-0.2,0-0.9-0.2-1c-0.3-0.2-1.1-0.2-1.4-0.3
									c-0.2,0-0.6,0-0.7-0.1c-0.1-0.1-0.3-0.3-0.2-0.5c0.1-0.2,0.5-0.3,0.7-0.4c0.2-0.1,0.7-0.3,0.8-0.5c0.2-0.4,0-1.2-0.3-1.5
									c-0.2-0.2-0.8-0.2-1-0.3c-0.2-0.1-0.7-0.1-0.9-0.3c-0.5-0.5-0.1-2.3-0.8-2.5c-0.6-0.2-1.4,1.4-2,1.7
									c-0.2,0.1-0.7,0.3-0.8,0.2c-0.4-0.3,0.1-1.7-0.3-2c-0.6-0.5-2.6-0.3-3.3,0.1c-0.4,0.2-1,0.9-1.1,1.3c-0.2,0.7,1,2.2,0.7,2.9
									c-0.2,0.6-1.8,0.8-2.2,1.3c-0.3,0.4-0.1,1.7-0.4,2.1c-0.2,0.2-0.7,0.5-1,0.4c-0.6-0.3-0.1-2.1-0.6-2.4
									c-0.5-0.3-1.7,0.3-2.3,0.3c-0.3,0-1-0.2-1.3-0.4c-0.3-0.3-0.9-1.1-0.8-1.5c0.2-1.1,2.4-2.5,3.4-3.2c0.4-0.3,1.3-1.2,1.8-1.1
									c0.3,0.1,0.2,1.1,0.5,1.2c0.3,0.1,0.9-0.1,1.1-0.3c0.1-0.1-0.2-0.5-0.1-0.7c0.1-0.2,0.9-0.2,1.1-0.4c0-0.1,0-0.2,0-0.2
									c-0.1-0.1-0.4,0-0.5-0.1c-0.1-0.1-0.3-0.5-0.3-0.6c0.1-0.3,1.1-0.2,1.3-0.5c0.2-0.2,0.5-0.8,0.6-1c0,0,0-0.1,0-0.1
									c0,0,0,0,0,0c0.1,0,0.1-0.3,0.2-0.3c0.6-0.5,2.1-1.1,2.8-1.1c0.4,0,1.5,0.3,1.6,0.7c0.1,0.9-3.3,1.7-2.9,2.6
									c0.4,1,3.7,0.7,4.5-0.1c0.3-0.3-0.1-1.2,0.2-1.5c0.1-0.1,0.3-0.1,0.4-0.1c0.4-0.1,1.2-0.1,1.5-0.4c0.3-0.3,0.6-1.1,0.4-1.4
									c-0.2-0.3-1.1,0.2-1.4,0c-0.3-0.2-0.1-1.3-0.4-1.5c-0.2-0.2-0.7-0.1-0.9-0.2c-0.9-0.2-2.7-0.7-3.7-0.6
									c-0.7,0.1-2.2,0.7-2.8,1c-0.4,0.2-1.3,0.8-1.4,1.2c-0.1,0.5,0.9,1.5,0.6,2c-0.2,0.4-1.4,0.4-1.8,0.2c-0.3-0.1-0.6-0.8-0.5-1
									c0-0.5,1.6-1.4,1.3-1.8c-0.4-0.6-2.3,0.3-3,0.6c-0.2,0.1-0.7,0.3-0.8,0.5c-0.1,0.2-0.3,0.9-0.1,1.1c0.2,0.2,0.9-0.3,1.1-0.1
									c0.2,0.2,0.2,0.9,0.1,1.1c-0.3,0.4-1.5,0.2-1.8,0.6c-0.1,0.2,0,0.6-0.1,0.8c-0.5,0.5-2.1,1.1-2.7,0.7
									c-0.3-0.2-0.4-1.4-0.6-1.5c0.2,0,1.7-0.3,2.1-0.6c0.5-0.3,1.5-1.4,1.2-1.9c-0.1-0.2-0.8-0.3-1-0.2c-0.4,0.2-0.5,1.2-0.9,1.4
									c-0.4,0.3-1.5,0.5-2,0.4c-0.5-0.1-1.1-1.2-1.6-1.3c-0.3-0.1-0.8,0-1.3,0.1c-1.1,1-2.2,2-3.3,3.1c0.4,0.3,1.8-0.9,2.3-0.7
									c0.2,0.1,0.4,0.4,0.4,0.6c0,0.2-0.6,0.5-0.5,0.7c0.4,0.5,2-0.8,2.7-0.6c0.3,0.1,0.7,0.6,0.6,0.8c-0.3,0.7-2.3,1-3,0.6
									c-0.2-0.1-0.2-0.6-0.3-0.7c-0.4-0.2-1.5,0.1-2,0.1c-0.2,0-0.6-0.2-0.9-0.2c-6.1,6.7-10.1,15.2-11.1,24.8
									C870.7,284.5,871.2,284.5,871.4,284.7z"/>
								<path fill="#2E3442" d="M956.7,290.4c-0.2,5.8-1.5,11.3-3.8,16.2c-0.1-0.7-0.1-1.6-0.3-2c-0.3-0.5-1.3-0.9-1.9-1.4
									c-0.2-0.1-0.3-0.3-0.4-0.4c-0.5-0.7-0.3-2.7-0.9-3.4c-0.1-0.1-0.3-0.2-0.5-0.3c-0.4-0.2-0.9-0.4-1.1-0.6
									c-0.2-0.3-0.5-1-0.5-1.4c0-0.9,1.1-2.6,0.9-3.4c-0.4-1.5-3.8-3.1-4.5-4.6c-0.4-0.8,0.2-3.1-0.6-3.7
									c-0.6-0.4-2.2,0.5-2.9,0.4c-0.4-0.1-0.9-0.7-1.3-0.7c-0.5-0.1-1.5,0.2-1.9,0.5c-0.3,0.2-0.5,0.9-0.7,1.1
									c-0.7,0.5-2.7,0.2-3.3,0.8c0,0.1,0,0.3,0,0.3c-0.3,0.3-1.4,0.5-1.8,0.5c-1.6-0.3-4.5-2.3-5.4-3.6c-0.5-0.8-1.2-2.8-0.9-3.7
									c0.1-0.2,0.6-0.3,0.6-0.4c0.1-0.1,0.1-0.3,0.1-0.5c0-0.4,0-0.8-0.2-0.9c-0.2-0.1-0.8,0.3-1,0.2c-0.4-0.2-0.8-1-0.8-1.4
									c0.1-1.5,3.6-3.2,4-4.6c0.1-0.6-0.8-1.8-0.6-2.4c0.2-0.7,1.4-1.6,2.1-1.9c0.2-0.1,0.7-0.1,1-0.1c0.5-0.1,1.5-0.2,2-0.5
									c0.4-0.2,0.9-1,1.3-1.2c1.1-0.6,3.7-2.2,4.9-1.6c0.6,0.3,0.1,2.1,0.6,2.5c0.6,0.4,1.9,0.2,3,0c0.4-0.1,0.8-0.1,1.1,0
									c0.2,0,0.7,0.3,0.9,0.3c0.2,0,0.6,0,0.7-0.2c0.2-0.3-0.5-1-0.3-1.3c0.3-0.5,1.6-0.8,2.2-0.8c0.7,0,1.9,1,2.5,1
									c0.4,0,1,0,1.6-0.2C954.8,273.8,957,281.8,956.7,290.4z"/>
								<path fill="#2E3442" d="M903.7,269.8c0.2,0.1,0.6-0.1,0.8-0.2c0.1-0.1,0.4-0.3,0.4-0.4c0.1-0.1-0.1-0.5,0-0.6
									c0.1-0.1,0.5-0.1,0.6-0.2c0.1-0.1,0.2-0.5,0.1-0.6c-0.1-0.1-0.5,0-0.6,0c-0.1,0-0.4,0-0.5,0.1c-0.1,0.1,0,0.6-0.1,0.7
									c-0.2,0.2-1.1,0-1.3,0.3c-0.1,0.1,0,0.6,0.2,0.6c0.1,0,0.2-0.1,0.3-0.1C903.7,269.6,903.6,269.8,903.7,269.8z"/>
							</g>
							<path opacity="0.5" fill="#2E3442" d="M950.1,265.8c0.1,0.3,0.1,0.6,0.2,1c0.3,1.6,0.5,3.1,0.6,4.7c0.1,1.5,0.1,3,0.1,4.5
								c-0.2,5.8-1.5,11.3-3.8,16.2c-1.5,3.3-3.4,6.4-5.6,9.2c0,0,0,0,0,0c-3.5,4.4-7.8,8-12.7,10.8c-1.7,0.9-3.4,1.6-5,2.3
								c-0.3,0.1-0.6,0.2-0.9,0.3c-0.1,0-0.2,0.1-0.3,0.1c-0.4,0.1-0.7,0.3-1.1,0.4c-0.2,0.1-0.4,0.1-0.5,0.2
								c-0.2,0-0.3,0.1-0.5,0.1c-0.5,0.1-0.9,0.3-1.3,0.4c-0.1,0-0.2,0-0.2,0.1c-0.2,0-0.3,0.1-0.5,0.1c-0.1,0-0.2,0-0.2,0.1
								c-0.1,0-0.2,0-0.3,0.1c-0.2,0-0.3,0.1-0.5,0.1c-0.2,0-0.3,0.1-0.5,0.1c-0.1,0-0.2,0-0.2,0c-0.2,0.1-0.4,0.1-0.6,0.1
								c-0.1,0-0.3,0.1-0.4,0.1c-1.5,0.3-2.4,0.4-2.4,0.4c-0.6,0.1-1.1,0.1-1.7,0.2c-0.2,0-0.3,0-0.5,0c-0.1,0-0.3,0-0.4,0
								c-0.2,0-0.3,0-0.5,0c-0.6,0-1.2,0.1-1.8,0.1c-0.4,0-0.9,0-1.3,0c0,0,0,0,0,0c-0.1,0-0.3,0-0.4,0c-0.3,0-0.6,0-0.9,0
								c-0.1,0-0.3,0-0.4,0c-0.3,0-0.6,0-0.9,0c-0.1,0-0.3,0-0.4,0c-0.1,0-0.3,0-0.4,0c0,0-0.1,0-0.1,0c-0.3,0-0.5,0-0.8-0.1
								c-0.1,0-0.3,0-0.4,0c-0.1,0-0.3,0-0.4,0c-0.1,0-0.2,0-0.3,0c-0.1,0-0.1,0-0.2,0c-6.7-0.9-13-3.4-18.3-7c-3-2-5.7-4.4-8.1-7.1
								c-0.3-0.4-0.7-0.8-1-1.2c-1-1.2-2-2.5-2.8-3.8c-0.2-0.3-0.4-0.6-0.6-0.9c0.2,0.8,0.3,1.6,0.5,2.4c0.8,3.1,1.9,6,3.4,8.8
								c0.7,1.4,1.5,2.8,2.4,4.1c0.9,1.3,1.8,2.6,2.8,3.8c0.3,0.4,0.7,0.8,1,1.2c2.4,2.7,5.1,5.1,8.1,7.1c5.4,3.6,11.6,6.1,18.3,7
								c0.1,0,0.1,0,0.2,0c0.1,0,0.2,0,0.3,0c0.1,0,0.3,0,0.4,0c0.1,0,0.3,0,0.4,0c0.3,0,0.5,0,0.8,0.1c0,0,0.1,0,0.1,0
								c0.1,0,0.3,0,0.4,0c0.1,0,0.3,0,0.4,0c0.3,0,0.6,0,0.9,0c0.1,0,0.3,0,0.4,0c0.3,0,0.6,0,0.9,0c0.1,0,0.3,0,0.4,0c0,0,0,0,0,0
								c0.4,0,0.9,0,1.3,0c0.6,0,1.2-0.1,1.8-0.1c0.2,0,0.3,0,0.5,0c0.1,0,0.3,0,0.4,0c0.2,0,0.3,0,0.5,0c0.6-0.1,1.1-0.1,1.7-0.2
								c0,0,0.9-0.1,2.4-0.4c0.1,0,0.3-0.1,0.4-0.1c0.2,0,0.4-0.1,0.6-0.1c0.1,0,0.1,0,0.2,0c0.2,0,0.3-0.1,0.5-0.1
								c0.2,0,0.3-0.1,0.5-0.1c0.1,0,0.2,0,0.3-0.1c0.1,0,0.1,0,0.2-0.1c0.2,0,0.3-0.1,0.5-0.1c0.1,0,0.2,0,0.2-0.1
								c0.4-0.1,0.9-0.2,1.3-0.4c0.2,0,0.3-0.1,0.5-0.1c0.2-0.1,0.4-0.1,0.5-0.2c0.4-0.1,0.7-0.2,1.1-0.4c0.1,0,0.2-0.1,0.3-0.1
								c0.3-0.1,0.6-0.2,0.9-0.3c1.6-0.6,3.3-1.4,5-2.3c4.9-2.8,9.2-6.4,12.7-10.8c0,0,0,0,0,0c2.2-2.8,4.1-5.9,5.6-9.2
								c2.2-5,3.6-10.5,3.8-16.2c0.1-1.5,0-3-0.1-4.5c-0.1-1.6-0.3-3.2-0.6-4.7c-0.3-1.6-0.7-3.1-1.1-4.6c-1-3.4-2.4-6.6-4.2-9.6
								C950.6,266.5,950.4,266.2,950.1,265.8z"/>
						</g>
					</g>
					<g>
						<g>
							<g>
								<path fill="#FFB727" d="M913,296.3c-0.7-1.4-1.9-2.5-3.4-2.9c-0.5-0.1-1-0.2-1.5-0.2c-3,0-5.4,2.5-5.4,5.5
									c0,3,5.5,11.4,5.5,11.4s0.6-0.9,1.4-2.3c1.1-1.9,2.7-4.7,3.5-6.9c0.3-0.9,0.5-1.6,0.5-2.2C913.5,297.8,913.3,297,913,296.3z
									 M909.6,301.2c-0.4,0.2-0.9,0.4-1.5,0.4c-1.6,0-3-1.3-3-2.9c0-1.6,1.3-3,2.9-3c0.5,0,1.1,0.1,1.5,0.4
									c0.9,0.5,1.4,1.4,1.4,2.5C911,299.7,910.4,300.7,909.6,301.2z"/>
							</g>
						</g>
						<g>
							<g>
								<path fill="#F2811C" d="M886.4,267.5c-3,0-5.4,2.5-5.4,5.5c0,2.4,3.4,8,4.8,10.3c0.4,0.7,0.7,1,0.7,1s0.5-0.7,1.2-1.9
									c1.6-2.7,4.2-7.4,4.2-9.5C891.9,269.9,889.4,267.5,886.4,267.5z M886.5,275.9c-1.6,0-3-1.3-3-2.9c0-1.6,1.3-3,2.9-3
									c1.6,0,2.9,1.3,2.9,2.9C889.4,274.6,888.1,275.9,886.5,275.9z"/>
							</g>
						</g>
						<g>
							<g>
								<path fill="#FFFFFF" d="M944.8,268.1c-0.6-1.6-1.8-2.8-3.4-3.3c-0.5-0.2-1.1-0.3-1.7-0.3c-0.1,0-0.2,0-0.4,0
									c-1.1,0.1-2.1,0.5-3,1.1c-1.3,1-2.1,2.6-2.1,4.3c0,3,5.5,11.4,5.5,11.4s5.4-8.4,5.4-11.4C945.2,269.3,945,268.7,944.8,268.1
									z M939.7,273c-1.6,0-3-1.3-3-2.9c0-1.3,0.8-2.4,2-2.8c0.3-0.1,0.6-0.2,0.9-0.2c0.9,0,1.7,0.4,2.2,1c0.5,0.5,0.8,1.2,0.8,2
									C942.7,271.6,941.4,273,939.7,273z"/>
							</g>
						</g>
					</g>
				</g>
			</g>
		</g>
	</g>
	<g>
		<g>
			<path fill="#FFFFFF" d="M989.2,140.9c-0.1,0-5.7-2-7.4-11.2c-0.1-0.3-0.3-0.5-0.7-0.5c-0.3,0-0.6,0.2-0.7,0.5
				c-1.7,9.3-7.3,11.2-7.4,11.2c-0.3,0.1-0.4,0.3-0.4,0.5c0,0.2,0.2,0.5,0.4,0.5c0.1,0,5.7,1.9,7.4,11.2c0.1,0.3,0.3,0.5,0.7,0.5
				c0.3,0,0.6-0.2,0.7-0.5c1.7-9.3,7.3-11.2,7.4-11.2c0.3-0.1,0.4-0.3,0.4-0.5C989.6,141.2,989.4,140.9,989.2,140.9z"/>
			<path fill="#FFFFFF" d="M971.1,113.2c0,0-3.3-1.1-4.3-6.5c0-0.2-0.2-0.3-0.4-0.3c-0.2,0-0.4,0.1-0.4,0.3c-1,5.4-4.3,6.5-4.3,6.5
				c-0.2,0-0.3,0.2-0.3,0.3c0,0.1,0.1,0.3,0.3,0.3c0,0,3.3,1.1,4.3,6.5c0,0.2,0.2,0.3,0.4,0.3c0.2,0,0.4-0.1,0.4-0.3
				c1-5.4,4.3-6.5,4.3-6.5c0.2,0,0.3-0.2,0.3-0.3C971.4,113.3,971.3,113.2,971.1,113.2z"/>
			<path fill="#FFFFFF" d="M1014.1,105.6c-0.1,0-8-2.8-10.3-15.8c-0.1-0.4-0.5-0.7-0.9-0.7s-0.9,0.3-0.9,0.7
				c-2.3,13.1-10.2,15.8-10.3,15.8c-0.4,0.1-0.6,0.4-0.6,0.8c0,0.3,0.2,0.6,0.6,0.8c0.1,0,8,2.7,10.3,15.8c0.1,0.4,0.5,0.7,0.9,0.7
				s0.9-0.3,0.9-0.7c2.3-13.1,10.2-15.8,10.3-15.8c0.4-0.1,0.6-0.4,0.6-0.7C1014.7,106.1,1014.4,105.7,1014.1,105.6z"/>
		</g>
		<g>
			<path fill="#FFFFFF" d="M463,460.7c-0.1,0-7.5-2.6-9.7-14.8c-0.1-0.4-0.4-0.6-0.9-0.6c-0.4,0-0.8,0.3-0.9,0.6
				c-2.2,12.2-9.7,14.7-9.7,14.8c-0.3,0.1-0.6,0.4-0.6,0.7c0,0.3,0.2,0.6,0.6,0.7c0.1,0,7.5,2.5,9.7,14.8c0.1,0.4,0.4,0.6,0.9,0.6
				c0.4,0,0.8-0.3,0.9-0.6c2.2-12.2,9.7-14.7,9.7-14.8c0.3-0.1,0.6-0.4,0.6-0.7C463.6,461.1,463.4,460.9,463,460.7z"/>
			<path fill="#FFFFFF" d="M437.2,438.4c0,0-4.4-1.5-5.6-8.6c0-0.2-0.3-0.4-0.5-0.4c-0.3,0-0.5,0.2-0.5,0.4
				c-1.3,7.1-5.6,8.5-5.6,8.6c-0.2,0.1-0.3,0.2-0.3,0.4c0,0.2,0.1,0.3,0.3,0.4c0,0,4.3,1.4,5.6,8.6c0,0.2,0.3,0.4,0.5,0.4
				c0.3,0,0.5-0.2,0.5-0.4c1.3-7.1,5.6-8.5,5.6-8.6c0.2-0.1,0.3-0.2,0.3-0.4C437.5,438.6,437.4,438.4,437.2,438.4z"/>
		</g>
	</g>
</g>
<g id="TEXTS">
</g>
</svg>
